999
QET
0
SECTION
2
HEADER
9
$ACADVER
1
AC1006
9
$INSBASE
10
0.0
20
0.0
30
0.0
9
$EXTMIN
10
0.0
20
0.0
9
$EXTMAX
10
4000.0
20
4000.0
9
$LIMMIN
10
0.0
20
0.0
9
$LIMMAX
10
4000.0
20
4000.0
0
ENDSEC
0
SECTION
2
TABLES
0
TABLE
2
VPORT
70
1
0
VPORT
2
*ACTIVE
70
0
10
0
20
0
11
1
21
1
12
2000
22
1350
13
0
23
0
14
1
24
1
15
0
25
0
16
0
26
0
36
1
17
0
27
0
37
0
40
2732.5
41
2.558
42
50
43
0
44
0
50
0
51
0
71
0
72
100
73
1
74
1
75
0
76
0
77
0
78
0
0
ENDTAB
0
TABLE
2
LTYPE
70
1
0
LTYPE
2
CONTINUOUS
70
64
3
Solid Line
72
65
73
0
40
0
0
ENDTAB
0
ENDSEC
0
SECTION
2
BLOCKS
0
ENDSEC
0
SECTION
2
ENTITIES
0
POLYLINE
8
0
62
0
66
1
70
8
10
0
20
0
30
0
0
VERTEX
8
0
70
32
10
19.2308
20
2680.99
30
0
0
VERTEX
8
0
70
32
10
4019.23
20
2680.99
30
0
0
VERTEX
8
0
70
32
10
4019.23
20
-19.0141
30
0
0
VERTEX
8
0
70
32
10
19.2308
20
-19.0141
30
0
0
VERTEX
8
0
70
32
10
19.2308
20
2680.99
30
0
0
SEQEND
8
0
0
POLYLINE
8
0
62
0
66
1
70
8
10
0
20
0
30
0
0
VERTEX
8
0
70
32
10
19.2308
20
2604.93
30
0
0
VERTEX
8
0
70
32
10
96.1538
20
2604.93
30
0
0
VERTEX
8
0
70
32
10
96.1538
20
2680.99
30
0
0
VERTEX
8
0
70
32
10
19.2308
20
2680.99
30
0
0
VERTEX
8
0
70
32
10
19.2308
20
2604.93
30
0
0
SEQEND
8
0
0
POLYLINE
8
0
62
0
66
1
70
8
10
0
20
0
30
0
0
VERTEX
8
0
70
32
10
96.1538
20
2604.93
30
0
0
VERTEX
8
0
70
32
10
326.923
20
2604.93
30
0
0
VERTEX
8
0
70
32
10
326.923
20
2680.99
30
0
0
VERTEX
8
0
70
32
10
96.1538
20
2680.99
30
0
0
VERTEX
8
0
70
32
10
96.1538
20
2604.93
30
0
0
SEQEND
8
0
0
TEXT
8
0
62
0
10
153.846
20
2642.96
30
0
40
53.2394
41
1
1
1
50
0
51
0
72
1
73
2
11
211.538
21
2642.96
31
0
0
POLYLINE
8
0
62
0
66
1
70
8
10
0
20
0
30
0
0
VERTEX
8
0
70
32
10
326.923
20
2604.93
30
0
0
VERTEX
8
0
70
32
10
557.692
20
2604.93
30
0
0
VERTEX
8
0
70
32
10
557.692
20
2680.99
30
0
0
VERTEX
8
0
70
32
10
326.923
20
2680.99
30
0
0
VERTEX
8
0
70
32
10
326.923
20
2604.93
30
0
0
SEQEND
8
0
0
TEXT
8
0
62
0
10
384.615
20
2642.96
30
0
40
53.2394
41
1
1
2
50
0
51
0
72
1
73
2
11
442.308
21
2642.96
31
0
0
POLYLINE
8
0
62
0
66
1
70
8
10
0
20
0
30
0
0
VERTEX
8
0
70
32
10
557.692
20
2604.93
30
0
0
VERTEX
8
0
70
32
10
788.462
20
2604.93
30
0
0
VERTEX
8
0
70
32
10
788.462
20
2680.99
30
0
0
VERTEX
8
0
70
32
10
557.692
20
2680.99
30
0
0
VERTEX
8
0
70
32
10
557.692
20
2604.93
30
0
0
SEQEND
8
0
0
TEXT
8
0
62
0
10
615.385
20
2642.96
30
0
40
53.2394
41
1
1
3
50
0
51
0
72
1
73
2
11
673.077
21
2642.96
31
0
0
POLYLINE
8
0
62
0
66
1
70
8
10
0
20
0
30
0
0
VERTEX
8
0
70
32
10
788.462
20
2604.93
30
0
0
VERTEX
8
0
70
32
10
1019.23
20
2604.93
30
0
0
VERTEX
8
0
70
32
10
1019.23
20
2680.99
30
0
0
VERTEX
8
0
70
32
10
788.462
20
2680.99
30
0
0
VERTEX
8
0
70
32
10
788.462
20
2604.93
30
0
0
SEQEND
8
0
0
TEXT
8
0
62
0
10
846.154
20
2642.96
30
0
40
53.2394
41
1
1
4
50
0
51
0
72
1
73
2
11
903.846
21
2642.96
31
0
0
POLYLINE
8
0
62
0
66
1
70
8
10
0
20
0
30
0
0
VERTEX
8
0
70
32
10
1019.23
20
2604.93
30
0
0
VERTEX
8
0
70
32
10
1250
20
2604.93
30
0
0
VERTEX
8
0
70
32
10
1250
20
2680.99
30
0
0
VERTEX
8
0
70
32
10
1019.23
20
2680.99
30
0
0
VERTEX
8
0
70
32
10
1019.23
20
2604.93
30
0
0
SEQEND
8
0
0
TEXT
8
0
62
0
10
1076.92
20
2642.96
30
0
40
53.2394
41
1
1
5
50
0
51
0
72
1
73
2
11
1134.62
21
2642.96
31
0
0
POLYLINE
8
0
62
0
66
1
70
8
10
0
20
0
30
0
0
VERTEX
8
0
70
32
10
1250
20
2604.93
30
0
0
VERTEX
8
0
70
32
10
1480.77
20
2604.93
30
0
0
VERTEX
8
0
70
32
10
1480.77
20
2680.99
30
0
0
VERTEX
8
0
70
32
10
1250
20
2680.99
30
0
0
VERTEX
8
0
70
32
10
1250
20
2604.93
30
0
0
SEQEND
8
0
0
TEXT
8
0
62
0
10
1307.69
20
2642.96
30
0
40
53.2394
41
1
1
6
50
0
51
0
72
1
73
2
11
1365.38
21
2642.96
31
0
0
POLYLINE
8
0
62
0
66
1
70
8
10
0
20
0
30
0
0
VERTEX
8
0
70
32
10
1480.77
20
2604.93
30
0
0
VERTEX
8
0
70
32
10
1711.54
20
2604.93
30
0
0
VERTEX
8
0
70
32
10
1711.54
20
2680.99
30
0
0
VERTEX
8
0
70
32
10
1480.77
20
2680.99
30
0
0
VERTEX
8
0
70
32
10
1480.77
20
2604.93
30
0
0
SEQEND
8
0
0
TEXT
8
0
62
0
10
1538.46
20
2642.96
30
0
40
53.2394
41
1
1
7
50
0
51
0
72
1
73
2
11
1596.15
21
2642.96
31
0
0
POLYLINE
8
0
62
0
66
1
70
8
10
0
20
0
30
0
0
VERTEX
8
0
70
32
10
1711.54
20
2604.93
30
0
0
VERTEX
8
0
70
32
10
1942.31
20
2604.93
30
0
0
VERTEX
8
0
70
32
10
1942.31
20
2680.99
30
0
0
VERTEX
8
0
70
32
10
1711.54
20
2680.99
30
0
0
VERTEX
8
0
70
32
10
1711.54
20
2604.93
30
0
0
SEQEND
8
0
0
TEXT
8
0
62
0
10
1769.23
20
2642.96
30
0
40
53.2394
41
1
1
8
50
0
51
0
72
1
73
2
11
1826.92
21
2642.96
31
0
0
POLYLINE
8
0
62
0
66
1
70
8
10
0
20
0
30
0
0
VERTEX
8
0
70
32
10
1942.31
20
2604.93
30
0
0
VERTEX
8
0
70
32
10
2173.08
20
2604.93
30
0
0
VERTEX
8
0
70
32
10
2173.08
20
2680.99
30
0
0
VERTEX
8
0
70
32
10
1942.31
20
2680.99
30
0
0
VERTEX
8
0
70
32
10
1942.31
20
2604.93
30
0
0
SEQEND
8
0
0
TEXT
8
0
62
0
10
2000
20
2642.96
30
0
40
53.2394
41
1
1
9
50
0
51
0
72
1
73
2
11
2057.69
21
2642.96
31
0
0
POLYLINE
8
0
62
0
66
1
70
8
10
0
20
0
30
0
0
VERTEX
8
0
70
32
10
2173.08
20
2604.93
30
0
0
VERTEX
8
0
70
32
10
2403.85
20
2604.93
30
0
0
VERTEX
8
0
70
32
10
2403.85
20
2680.99
30
0
0
VERTEX
8
0
70
32
10
2173.08
20
2680.99
30
0
0
VERTEX
8
0
70
32
10
2173.08
20
2604.93
30
0
0
SEQEND
8
0
0
TEXT
8
0
62
0
10
2230.77
20
2642.96
30
0
40
53.2394
41
1
1
10
50
0
51
0
72
1
73
2
11
2288.46
21
2642.96
31
0
0
POLYLINE
8
0
62
0
66
1
70
8
10
0
20
0
30
0
0
VERTEX
8
0
70
32
10
2403.85
20
2604.93
30
0
0
VERTEX
8
0
70
32
10
2634.62
20
2604.93
30
0
0
VERTEX
8
0
70
32
10
2634.62
20
2680.99
30
0
0
VERTEX
8
0
70
32
10
2403.85
20
2680.99
30
0
0
VERTEX
8
0
70
32
10
2403.85
20
2604.93
30
0
0
SEQEND
8
0
0
TEXT
8
0
62
0
10
2461.54
20
2642.96
30
0
40
53.2394
41
1
1
11
50
0
51
0
72
1
73
2
11
2519.23
21
2642.96
31
0
0
POLYLINE
8
0
62
0
66
1
70
8
10
0
20
0
30
0
0
VERTEX
8
0
70
32
10
2634.62
20
2604.93
30
0
0
VERTEX
8
0
70
32
10
2865.38
20
2604.93
30
0
0
VERTEX
8
0
70
32
10
2865.38
20
2680.99
30
0
0
VERTEX
8
0
70
32
10
2634.62
20
2680.99
30
0
0
VERTEX
8
0
70
32
10
2634.62
20
2604.93
30
0
0
SEQEND
8
0
0
TEXT
8
0
62
0
10
2692.31
20
2642.96
30
0
40
53.2394
41
1
1
12
50
0
51
0
72
1
73
2
11
2750
21
2642.96
31
0
0
POLYLINE
8
0
62
0
66
1
70
8
10
0
20
0
30
0
0
VERTEX
8
0
70
32
10
2865.38
20
2604.93
30
0
0
VERTEX
8
0
70
32
10
3096.15
20
2604.93
30
0
0
VERTEX
8
0
70
32
10
3096.15
20
2680.99
30
0
0
VERTEX
8
0
70
32
10
2865.38
20
2680.99
30
0
0
VERTEX
8
0
70
32
10
2865.38
20
2604.93
30
0
0
SEQEND
8
0
0
TEXT
8
0
62
0
10
2923.08
20
2642.96
30
0
40
53.2394
41
1
1
13
50
0
51
0
72
1
73
2
11
2980.77
21
2642.96
31
0
0
POLYLINE
8
0
62
0
66
1
70
8
10
0
20
0
30
0
0
VERTEX
8
0
70
32
10
3096.15
20
2604.93
30
0
0
VERTEX
8
0
70
32
10
3326.92
20
2604.93
30
0
0
VERTEX
8
0
70
32
10
3326.92
20
2680.99
30
0
0
VERTEX
8
0
70
32
10
3096.15
20
2680.99
30
0
0
VERTEX
8
0
70
32
10
3096.15
20
2604.93
30
0
0
SEQEND
8
0
0
TEXT
8
0
62
0
10
3153.85
20
2642.96
30
0
40
53.2394
41
1
1
14
50
0
51
0
72
1
73
2
11
3211.54
21
2642.96
31
0
0
POLYLINE
8
0
62
0
66
1
70
8
10
0
20
0
30
0
0
VERTEX
8
0
70
32
10
3326.92
20
2604.93
30
0
0
VERTEX
8
0
70
32
10
3557.69
20
2604.93
30
0
0
VERTEX
8
0
70
32
10
3557.69
20
2680.99
30
0
0
VERTEX
8
0
70
32
10
3326.92
20
2680.99
30
0
0
VERTEX
8
0
70
32
10
3326.92
20
2604.93
30
0
0
SEQEND
8
0
0
TEXT
8
0
62
0
10
3384.62
20
2642.96
30
0
40
53.2394
41
1
1
15
50
0
51
0
72
1
73
2
11
3442.31
21
2642.96
31
0
0
POLYLINE
8
0
62
0
66
1
70
8
10
0
20
0
30
0
0
VERTEX
8
0
70
32
10
3557.69
20
2604.93
30
0
0
VERTEX
8
0
70
32
10
3788.46
20
2604.93
30
0
0
VERTEX
8
0
70
32
10
3788.46
20
2680.99
30
0
0
VERTEX
8
0
70
32
10
3557.69
20
2680.99
30
0
0
VERTEX
8
0
70
32
10
3557.69
20
2604.93
30
0
0
SEQEND
8
0
0
TEXT
8
0
62
0
10
3615.38
20
2642.96
30
0
40
53.2394
41
1
1
16
50
0
51
0
72
1
73
2
11
3673.08
21
2642.96
31
0
0
POLYLINE
8
0
62
0
66
1
70
8
10
0
20
0
30
0
0
VERTEX
8
0
70
32
10
3788.46
20
2604.93
30
0
0
VERTEX
8
0
70
32
10
4019.23
20
2604.93
30
0
0
VERTEX
8
0
70
32
10
4019.23
20
2680.99
30
0
0
VERTEX
8
0
70
32
10
3788.46
20
2680.99
30
0
0
VERTEX
8
0
70
32
10
3788.46
20
2604.93
30
0
0
SEQEND
8
0
0
TEXT
8
0
62
0
10
3846.15
20
2642.96
30
0
40
53.2394
41
1
1
17
50
0
51
0
72
1
73
2
11
3903.85
21
2642.96
31
0
0
POLYLINE
8
0
62
0
66
1
70
8
10
0
20
0
30
0
0
VERTEX
8
0
70
32
10
19.2308
20
2300.7
30
0
0
VERTEX
8
0
70
32
10
96.1538
20
2300.7
30
0
0
VERTEX
8
0
70
32
10
96.1538
20
2604.93
30
0
0
VERTEX
8
0
70
32
10
19.2308
20
2604.93
30
0
0
VERTEX
8
0
70
32
10
19.2308
20
2300.7
30
0
0
SEQEND
8
0
0
TEXT
8
0
62
0
10
26.9231
20
2422.39
30
0
40
53.8462
41
1
1
A
50
0
51
0
72
1
73
2
11
57.6923
21
2422.39
31
0
0
POLYLINE
8
0
62
0
66
1
70
8
10
0
20
0
30
0
0
VERTEX
8
0
70
32
10
19.2308
20
1996.48
30
0
0
VERTEX
8
0
70
32
10
96.1538
20
1996.48
30
0
0
VERTEX
8
0
70
32
10
96.1538
20
2300.7
30
0
0
VERTEX
8
0
70
32
10
19.2308
20
2300.7
30
0
0
VERTEX
8
0
70
32
10
19.2308
20
1996.48
30
0
0
SEQEND
8
0
0
TEXT
8
0
62
0
10
26.9231
20
2118.17
30
0
40
53.8462
41
1
1
B
50
0
51
0
72
1
73
2
11
57.6923
21
2118.17
31
0
0
POLYLINE
8
0
62
0
66
1
70
8
10
0
20
0
30
0
0
VERTEX
8
0
70
32
10
19.2308
20
1692.25
30
0
0
VERTEX
8
0
70
32
10
96.1538
20
1692.25
30
0
0
VERTEX
8
0
70
32
10
96.1538
20
1996.48
30
0
0
VERTEX
8
0
70
32
10
19.2308
20
1996.48
30
0
0
VERTEX
8
0
70
32
10
19.2308
20
1692.25
30
0
0
SEQEND
8
0
0
TEXT
8
0
62
0
10
26.9231
20
1813.94
30
0
40
53.8462
41
1
1
C
50
0
51
0
72
1
73
2
11
57.6923
21
1813.94
31
0
0
POLYLINE
8
0
62
0
66
1
70
8
10
0
20
0
30
0
0
VERTEX
8
0
70
32
10
19.2308
20
1388.03
30
0
0
VERTEX
8
0
70
32
10
96.1538
20
1388.03
30
0
0
VERTEX
8
0
70
32
10
96.1538
20
1692.25
30
0
0
VERTEX
8
0
70
32
10
19.2308
20
1692.25
30
0
0
VERTEX
8
0
70
32
10
19.2308
20
1388.03
30
0
0
SEQEND
8
0
0
TEXT
8
0
62
0
10
26.9231
20
1509.72
30
0
40
53.8462
41
1
1
D
50
0
51
0
72
1
73
2
11
57.6923
21
1509.72
31
0
0
POLYLINE
8
0
62
0
66
1
70
8
10
0
20
0
30
0
0
VERTEX
8
0
70
32
10
19.2308
20
1083.8
30
0
0
VERTEX
8
0
70
32
10
96.1538
20
1083.8
30
0
0
VERTEX
8
0
70
32
10
96.1538
20
1388.03
30
0
0
VERTEX
8
0
70
32
10
19.2308
20
1388.03
30
0
0
VERTEX
8
0
70
32
10
19.2308
20
1083.8
30
0
0
SEQEND
8
0
0
TEXT
8
0
62
0
10
26.9231
20
1205.49
30
0
40
53.8462
41
1
1
E
50
0
51
0
72
1
73
2
11
57.6923
21
1205.49
31
0
0
POLYLINE
8
0
62
0
66
1
70
8
10
0
20
0
30
0
0
VERTEX
8
0
70
32
10
19.2308
20
779.577
30
0
0
VERTEX
8
0
70
32
10
96.1538
20
779.577
30
0
0
VERTEX
8
0
70
32
10
96.1538
20
1083.8
30
0
0
VERTEX
8
0
70
32
10
19.2308
20
1083.8
30
0
0
VERTEX
8
0
70
32
10
19.2308
20
779.577
30
0
0
SEQEND
8
0
0
TEXT
8
0
62
0
10
26.9231
20
901.268
30
0
40
53.8462
41
1
1
F
50
0
51
0
72
1
73
2
11
57.6923
21
901.268
31
0
0
POLYLINE
8
0
62
0
66
1
70
8
10
0
20
0
30
0
0
VERTEX
8
0
70
32
10
19.2308
20
475.352
30
0
0
VERTEX
8
0
70
32
10
96.1538
20
475.352
30
0
0
VERTEX
8
0
70
32
10
96.1538
20
779.577
30
0
0
VERTEX
8
0
70
32
10
19.2308
20
779.577
30
0
0
VERTEX
8
0
70
32
10
19.2308
20
475.352
30
0
0
SEQEND
8
0
0
TEXT
8
0
62
0
10
26.9231
20
597.042
30
0
40
53.8462
41
1
1
G
50
0
51
0
72
1
73
2
11
57.6923
21
597.042
31
0
0
POLYLINE
8
0
62
0
66
1
70
8
10
0
20
0
30
0
0
VERTEX
8
0
70
32
10
19.2308
20
171.127
30
0
0
VERTEX
8
0
70
32
10
96.1538
20
171.127
30
0
0
VERTEX
8
0
70
32
10
96.1538
20
475.352
30
0
0
VERTEX
8
0
70
32
10
19.2308
20
475.352
30
0
0
VERTEX
8
0
70
32
10
19.2308
20
171.127
30
0
0
SEQEND
8
0
0
TEXT
8
0
62
0
10
26.9231
20
292.817
30
0
40
53.8462
41
1
1
H
50
0
51
0
72
1
73
2
11
57.6923
21
292.817
31
0
0
POLYLINE
8
0
62
0
66
1
70
8
10
0
20
0
30
0
0
VERTEX
8
0
70
32
10
19.2308
20
-19.0141
30
0
0
VERTEX
8
0
70
32
10
4019.23
20
-19.0141
30
0
0
VERTEX
8
0
70
32
10
4019.23
20
171.127
30
0
0
VERTEX
8
0
70
32
10
19.2308
20
171.127
30
0
0
VERTEX
8
0
70
32
10
19.2308
20
-19.0141
30
0
0
SEQEND
8
0
0
POLYLINE
8
0
62
0
66
1
70
8
10
0
20
0
30
0
0
VERTEX
8
0
70
32
10
19.2308
20
76.0563
30
0
0
VERTEX
8
0
70
32
10
415.385
20
76.0563
30
0
0
VERTEX
8
0
70
32
10
415.385
20
171.127
30
0
0
VERTEX
8
0
70
32
10
19.2308
20
171.127
30
0
0
VERTEX
8
0
70
32
10
19.2308
20
76.0563
30
0
0
SEQEND
8
0
0
TEXT
8
0
62
0
10
11.5385
20
123.592
30
0
40
34.2254
41
1
1
 Datum:
50
0
51
0
72
1
73
2
11
217.308
21
123.592
31
0
0
POLYLINE
8
0
62
0
66
1
70
8
10
0
20
0
30
0
0
VERTEX
8
0
70
32
10
415.385
20
76.0563
30
0
0
VERTEX
8
0
70
32
10
815.385
20
76.0563
30
0
0
VERTEX
8
0
70
32
10
815.385
20
171.127
30
0
0
VERTEX
8
0
70
32
10
415.385
20
171.127
30
0
0
VERTEX
8
0
70
32
10
415.385
20
76.0563
30
0
0
SEQEND
8
0
0
TEXT
8
0
62
0
10
407.692
20
123.592
30
0
40
34.2254
41
0.877193
1
 12.02.2022
50
0
51
0
72
1
73
2
11
615.385
21
123.592
31
0
0
POLYLINE
8
0
62
0
66
1
70
8
10
0
20
0
30
0
0
VERTEX
8
0
70
32
10
815.385
20
76.0563
30
0
0
VERTEX
8
0
70
32
10
1415.38
20
76.0563
30
0
0
VERTEX
8
0
70
32
10
1415.38
20
171.127
30
0
0
VERTEX
8
0
70
32
10
815.385
20
171.127
30
0
0
VERTEX
8
0
70
32
10
815.385
20
76.0563
30
0
0
SEQEND
8
0
0
TEXT
8
0
62
0
10
807.692
20
123.592
30
0
40
34.2254
41
1
1
 Ort: Leuna
50
0
51
0
72
0
73
2
11
815.385
21
123.592
31
0
0
POLYLINE
8
0
62
0
66
1
70
8
10
0
20
0
30
0
0
VERTEX
8
0
70
32
10
1415.38
20
76.0563
30
0
0
VERTEX
8
0
70
32
10
2815.38
20
76.0563
30
0
0
VERTEX
8
0
70
32
10
2815.38
20
171.127
30
0
0
VERTEX
8
0
70
32
10
1415.38
20
171.127
30
0
0
VERTEX
8
0
70
32
10
1415.38
20
76.0563
30
0
0
SEQEND
8
0
0
TEXT
8
0
62
0
10
1407.69
20
123.592
30
0
40
41.831
41
1
1
 Instrumental Loop
50
0
51
0
72
1
73
2
11
2115.38
21
123.592
31
0
0
POLYLINE
8
0
62
0
66
1
70
8
10
0
20
0
30
0
0
VERTEX
8
0
70
32
10
2815.38
20
76.0563
30
0
0
VERTEX
8
0
70
32
10
3176.92
20
76.0563
30
0
0
VERTEX
8
0
70
32
10
3176.92
20
171.127
30
0
0
VERTEX
8
0
70
32
10
2815.38
20
171.127
30
0
0
VERTEX
8
0
70
32
10
2815.38
20
76.0563
30
0
0
SEQEND
8
0
0
TEXT
8
0
62
0
10
2807.69
20
123.592
30
0
40
34.2254
41
0.792848
1
 Zeich. Nr.
50
0
51
0
72
1
73
2
11
2996.15
21
123.592
31
0
0
POLYLINE
8
0
62
0
66
1
70
8
10
0
20
0
30
0
0
VERTEX
8
0
70
32
10
3176.92
20
76.0563
30
0
0
VERTEX
8
0
70
32
10
3457.69
20
76.0563
30
0
0
VERTEX
8
0
70
32
10
3457.69
20
171.127
30
0
0
VERTEX
8
0
70
32
10
3176.92
20
171.127
30
0
0
VERTEX
8
0
70
32
10
3176.92
20
76.0563
30
0
0
SEQEND
8
0
0
TEXT
8
0
62
0
10
3169.23
20
123.592
30
0
40
34.2254
41
0.84569
1
 Blatt: 
50
0
51
0
72
1
73
2
11
3317.31
21
123.592
31
0
0
POLYLINE
8
0
62
0
66
1
70
8
10
0
20
0
30
0
0
VERTEX
8
0
70
32
10
3457.69
20
76.0563
30
0
0
VERTEX
8
0
70
32
10
3738.46
20
76.0563
30
0
0
VERTEX
8
0
70
32
10
3738.46
20
171.127
30
0
0
VERTEX
8
0
70
32
10
3457.69
20
171.127
30
0
0
VERTEX
8
0
70
32
10
3457.69
20
76.0563
30
0
0
SEQEND
8
0
0
TEXT
8
0
62
0
10
3450
20
123.592
30
0
40
34.2254
41
0.96817
1
 Format
50
0
51
0
72
1
73
2
11
3598.08
21
123.592
31
0
0
POLYLINE
8
0
62
0
66
1
70
8
10
0
20
0
30
0
0
VERTEX
8
0
70
32
10
3738.46
20
76.0563
30
0
0
VERTEX
8
0
70
32
10
4019.23
20
76.0563
30
0
0
VERTEX
8
0
70
32
10
4019.23
20
171.127
30
0
0
VERTEX
8
0
70
32
10
3738.46
20
171.127
30
0
0
VERTEX
8
0
70
32
10
3738.46
20
76.0563
30
0
0
SEQEND
8
0
0
TEXT
8
0
62
0
10
3730.77
20
123.592
30
0
40
34.2254
41
1
1
 Rev.
50
0
51
0
72
1
73
2
11
3878.85
21
123.592
31
0
0
POLYLINE
8
0
62
0
66
1
70
8
10
0
20
0
30
0
0
VERTEX
8
0
70
32
10
19.2308
20
-19.0141
30
0
0
VERTEX
8
0
70
32
10
415.385
20
-19.0141
30
0
0
VERTEX
8
0
70
32
10
415.385
20
76.0563
30
0
0
VERTEX
8
0
70
32
10
19.2308
20
76.0563
30
0
0
VERTEX
8
0
70
32
10
19.2308
20
-19.0141
30
0
0
SEQEND
8
0
0
TEXT
8
0
62
0
10
11.5385
20
28.5211
30
0
40
34.2254
41
1
1
 Autor: 
50
0
51
0
72
1
73
2
11
217.308
21
28.5211
31
0
0
POLYLINE
8
0
62
0
66
1
70
8
10
0
20
0
30
0
0
VERTEX
8
0
70
32
10
415.385
20
-19.0141
30
0
0
VERTEX
8
0
70
32
10
815.385
20
-19.0141
30
0
0
VERTEX
8
0
70
32
10
815.385
20
76.0563
30
0
0
VERTEX
8
0
70
32
10
415.385
20
76.0563
30
0
0
VERTEX
8
0
70
32
10
415.385
20
-19.0141
30
0
0
SEQEND
8
0
0
TEXT
8
0
62
0
10
407.692
20
28.5211
30
0
40
34.2254
41
0.877193
1
 Roman Zank
50
0
51
0
72
1
73
2
11
615.385
21
28.5211
31
0
0
POLYLINE
8
0
62
0
66
1
70
8
10
0
20
0
30
0
0
VERTEX
8
0
70
32
10
815.385
20
-19.0141
30
0
0
VERTEX
8
0
70
32
10
1415.38
20
-19.0141
30
0
0
VERTEX
8
0
70
32
10
1415.38
20
76.0563
30
0
0
VERTEX
8
0
70
32
10
815.385
20
76.0563
30
0
0
VERTEX
8
0
70
32
10
815.385
20
-19.0141
30
0
0
SEQEND
8
0
0
TEXT
8
0
62
0
10
807.692
20
28.5211
30
0
40
34.2254
41
0.55607
1
 Anlage: Leuna Latex Plant
50
0
51
0
72
0
73
2
11
815.385
21
28.5211
31
0
0
POLYLINE
8
0
62
0
66
1
70
8
10
0
20
0
30
0
0
VERTEX
8
0
70
32
10
1415.38
20
-19.0141
30
0
0
VERTEX
8
0
70
32
10
2815.38
20
-19.0141
30
0
0
VERTEX
8
0
70
32
10
2815.38
20
76.0563
30
0
0
VERTEX
8
0
70
32
10
1415.38
20
76.0563
30
0
0
VERTEX
8
0
70
32
10
1415.38
20
-19.0141
30
0
0
SEQEND
8
0
0
TEXT
8
0
62
0
10
1407.69
20
28.5211
30
0
40
41.831
41
1
1
 Verdickermitteldosierung
50
0
51
0
72
1
73
2
11
2115.38
21
28.5211
31
0
0
POLYLINE
8
0
62
0
66
1
70
8
10
0
20
0
30
0
0
VERTEX
8
0
70
32
10
2815.38
20
-19.0141
30
0
0
VERTEX
8
0
70
32
10
3176.92
20
-19.0141
30
0
0
VERTEX
8
0
70
32
10
3176.92
20
76.0563
30
0
0
VERTEX
8
0
70
32
10
2815.38
20
76.0563
30
0
0
VERTEX
8
0
70
32
10
2815.38
20
-19.0141
30
0
0
SEQEND
8
0
0
TEXT
8
0
62
0
10
2807.69
20
28.5211
30
0
40
34.2254
41
0.725981
1
 Zeichnung 1
50
0
51
0
72
1
73
2
11
2996.15
21
28.5211
31
0
0
POLYLINE
8
0
62
0
66
1
70
8
10
0
20
0
30
0
0
VERTEX
8
0
70
32
10
3176.92
20
-19.0141
30
0
0
VERTEX
8
0
70
32
10
3457.69
20
-19.0141
30
0
0
VERTEX
8
0
70
32
10
3457.69
20
76.0563
30
0
0
VERTEX
8
0
70
32
10
3176.92
20
76.0563
30
0
0
VERTEX
8
0
70
32
10
3176.92
20
-19.0141
30
0
0
SEQEND
8
0
0
TEXT
8
0
62
0
10
3169.23
20
28.5211
30
0
40
34.2254
41
1
1
 1 / 1
50
0
51
0
72
1
73
2
11
3317.31
21
28.5211
31
0
0
POLYLINE
8
0
62
0
66
1
70
8
10
0
20
0
30
0
0
VERTEX
8
0
70
32
10
3457.69
20
-19.0141
30
0
0
VERTEX
8
0
70
32
10
3738.46
20
-19.0141
30
0
0
VERTEX
8
0
70
32
10
3738.46
20
76.0563
30
0
0
VERTEX
8
0
70
32
10
3457.69
20
76.0563
30
0
0
VERTEX
8
0
70
32
10
3457.69
20
-19.0141
30
0
0
SEQEND
8
0
0
TEXT
8
0
62
0
10
3450
20
28.5211
30
0
40
34.2254
41
1
1
 A4
50
0
51
0
72
1
73
2
11
3598.08
21
28.5211
31
0
0
POLYLINE
8
0
62
0
66
1
70
8
10
0
20
0
30
0
0
VERTEX
8
0
70
32
10
3738.46
20
-19.0141
30
0
0
VERTEX
8
0
70
32
10
4019.23
20
-19.0141
30
0
0
VERTEX
8
0
70
32
10
4019.23
20
76.0563
30
0
0
VERTEX
8
0
70
32
10
3738.46
20
76.0563
30
0
0
VERTEX
8
0
70
32
10
3738.46
20
-19.0141
30
0
0
SEQEND
8
0
0
TEXT
8
0
62
0
10
3730.77
20
28.5211
30
0
40
34.2254
41
1
1
 00
50
0
51
0
72
1
73
2
11
3878.85
21
28.5211
31
0
0
LINE
8
0
62
0
10
1038.46
20
1407.04
30
0
11
1038.46
21
1445.07
31
0
0
LINE
8
0
62
0
10
1653.85
20
2433.8
30
0
11
1653.85
21
190.141
31
0
0
LINE
8
0
62
0
10
653.846
20
1407.04
30
0
11
615.385
21
1407.04
31
0
0
LINE
8
0
62
0
10
1192.31
20
2509.86
30
0
11
1192.31
21
190.141
31
0
0
LINE
8
0
62
0
10
1423.08
20
2205.63
30
0
11
1423.08
21
190.141
31
0
0
LINE
8
0
62
0
10
2307.69
20
2433.8
30
0
11
2307.69
21
190.141
31
0
0
LINE
8
0
62
0
10
653.846
20
1445.07
30
0
11
653.846
21
1407.04
31
0
0
LINE
8
0
62
0
10
1346.15
20
1369.01
30
0
11
1346.15
21
1407.04
31
0
0
LINE
8
0
62
0
10
1269.23
20
1445.07
30
0
11
1269.23
21
1407.04
31
0
0
POLYLINE
8
0
62
0
66
1
70
8
10
0
20
0
30
0
0
VERTEX
8
0
70
32
10
115.385
20
2585.92
30
0
0
VERTEX
8
0
70
32
10
4000
20
2585.92
30
0
0
VERTEX
8
0
70
32
10
4000
20
2509.86
30
0
0
VERTEX
8
0
70
32
10
115.385
20
2509.86
30
0
0
VERTEX
8
0
70
32
10
115.385
20
2585.92
30
0
0
SEQEND
8
0
0
POLYLINE
8
0
62
0
66
1
70
8
10
0
20
0
30
0
0
VERTEX
8
0
70
32
10
730.769
20
2281.69
30
0
0
VERTEX
8
0
70
32
10
884.615
20
2281.69
30
0
0
VERTEX
8
0
70
32
10
884.615
20
2205.63
30
0
0
VERTEX
8
0
70
32
10
730.769
20
2205.63
30
0
0
VERTEX
8
0
70
32
10
730.769
20
2281.69
30
0
0
SEQEND
8
0
0
POLYLINE
8
0
62
0
66
1
70
8
10
0
20
0
30
0
0
VERTEX
8
0
70
32
10
115.385
20
2585.92
30
0
0
VERTEX
8
0
70
32
10
2076.92
20
2585.92
30
0
0
VERTEX
8
0
70
32
10
2076.92
20
2509.86
30
0
0
VERTEX
8
0
70
32
10
115.385
20
2509.86
30
0
0
VERTEX
8
0
70
32
10
115.385
20
2585.92
30
0
0
SEQEND
8
0
0
POLYLINE
8
0
62
0
66
1
70
8
10
0
20
0
30
0
0
VERTEX
8
0
70
32
10
115.385
20
2585.92
30
0
0
VERTEX
8
0
70
32
10
115.385
20
2585.92
30
0
0
VERTEX
8
0
70
32
10
115.385
20
2585.92
30
0
0
VERTEX
8
0
70
32
10
115.385
20
2585.92
30
0
0
VERTEX
8
0
70
32
10
115.385
20
2585.92
30
0
0
SEQEND
8
0
0
LINE
8
0
62
0
10
923.077
20
1407.04
30
0
11
884.615
21
1407.04
31
0
0
POLYLINE
8
0
62
0
66
1
70
8
10
0
20
0
30
0
0
VERTEX
8
0
70
32
10
115.385
20
2433.8
30
0
0
VERTEX
8
0
70
32
10
4000
20
2433.8
30
0
0
VERTEX
8
0
70
32
10
4000
20
2281.69
30
0
0
VERTEX
8
0
70
32
10
115.385
20
2281.69
30
0
0
VERTEX
8
0
70
32
10
115.385
20
2433.8
30
0
0
SEQEND
8
0
0
POLYLINE
8
0
62
0
66
1
70
8
10
0
20
0
30
0
0
VERTEX
8
0
70
32
10
730.769
20
2281.69
30
0
0
VERTEX
8
0
70
32
10
1653.85
20
2281.69
30
0
0
VERTEX
8
0
70
32
10
1653.85
20
2205.63
30
0
0
VERTEX
8
0
70
32
10
730.769
20
2205.63
30
0
0
VERTEX
8
0
70
32
10
730.769
20
2281.69
30
0
0
SEQEND
8
0
0
POLYLINE
8
0
62
0
66
1
70
8
10
0
20
0
30
0
0
VERTEX
8
0
70
32
10
115.385
20
2509.86
30
0
0
VERTEX
8
0
70
32
10
1192.31
20
2509.86
30
0
0
VERTEX
8
0
70
32
10
1192.31
20
2433.8
30
0
0
VERTEX
8
0
70
32
10
115.385
20
2433.8
30
0
0
VERTEX
8
0
70
32
10
115.385
20
2509.86
30
0
0
SEQEND
8
0
0
POLYLINE
8
0
62
0
66
1
70
8
10
0
20
0
30
0
0
VERTEX
8
0
70
32
10
3500
20
2509.86
30
0
0
VERTEX
8
0
70
32
10
4000
20
2509.86
30
0
0
VERTEX
8
0
70
32
10
4000
20
2433.8
30
0
0
VERTEX
8
0
70
32
10
3500
20
2433.8
30
0
0
VERTEX
8
0
70
32
10
3500
20
2509.86
30
0
0
SEQEND
8
0
0
LINE
8
0
62
0
10
730.769
20
2433.8
30
0
11
730.769
21
190.141
31
0
0
LINE
8
0
62
0
10
2884.62
20
2433.8
30
0
11
2884.62
21
190.141
31
0
0
LINE
8
0
62
0
10
1000
20
1407.04
30
0
11
1038.46
21
1407.04
31
0
0
POLYLINE
8
0
62
0
66
1
70
8
10
0
20
0
30
0
0
VERTEX
8
0
70
32
10
961.538
20
2281.69
30
0
0
VERTEX
8
0
70
32
10
1038.46
20
2281.69
30
0
0
VERTEX
8
0
70
32
10
1038.46
20
2205.63
30
0
0
VERTEX
8
0
70
32
10
961.538
20
2205.63
30
0
0
VERTEX
8
0
70
32
10
961.538
20
2281.69
30
0
0
SEQEND
8
0
0
POLYLINE
8
0
62
0
66
1
70
8
10
0
20
0
30
0
0
VERTEX
8
0
70
32
10
884.615
20
2281.69
30
0
0
VERTEX
8
0
70
32
10
961.538
20
2281.69
30
0
0
VERTEX
8
0
70
32
10
961.538
20
2205.63
30
0
0
VERTEX
8
0
70
32
10
884.615
20
2205.63
30
0
0
VERTEX
8
0
70
32
10
884.615
20
2281.69
30
0
0
SEQEND
8
0
0
LINE
8
0
62
0
10
3500
20
2509.86
30
0
11
3500
21
190.141
31
0
0
LINE
8
0
62
0
10
1615.38
20
1445.07
30
0
11
1615.38
21
1407.04
31
0
0
POLYLINE
8
0
62
0
66
1
70
8
10
0
20
0
30
0
0
VERTEX
8
0
70
32
10
1192.31
20
2509.86
30
0
0
VERTEX
8
0
70
32
10
3500
20
2509.86
30
0
0
VERTEX
8
0
70
32
10
3500
20
2433.8
30
0
0
VERTEX
8
0
70
32
10
1192.31
20
2433.8
30
0
0
VERTEX
8
0
70
32
10
1192.31
20
2509.86
30
0
0
SEQEND
8
0
0
LINE
8
0
62
0
10
1500
20
1407.04
30
0
11
1500
21
1369.01
31
0
0
LINE
8
0
62
0
10
1576.92
20
1407.04
30
0
11
1615.38
21
1407.04
31
0
0
POLYLINE
8
0
62
0
66
1
70
8
10
0
20
0
30
0
0
VERTEX
8
0
70
32
10
1423.08
20
2281.69
30
0
0
VERTEX
8
0
70
32
10
1423.08
20
2281.69
30
0
0
VERTEX
8
0
70
32
10
1423.08
20
2205.63
30
0
0
VERTEX
8
0
70
32
10
1423.08
20
2205.63
30
0
0
VERTEX
8
0
70
32
10
1423.08
20
2281.69
30
0
0
SEQEND
8
0
0
LINE
8
0
62
0
10
884.615
20
1445.07
30
0
11
884.615
21
1407.04
31
0
0
LINE
8
0
62
0
10
1115.38
20
1483.1
30
0
11
1115.38
21
1254.93
31
0
0
LINE
8
0
62
0
10
1103.85
20
1528.73
30
0
11
1130.77
21
1513.52
31
0
0
LINE
8
0
62
0
10
1103.85
20
1490.7
30
0
11
1130.77
21
1475.49
31
0
0
LINE
8
0
62
0
10
1115.38
20
1521.13
30
0
11
1115.38
21
1483.1
31
0
0
LINE
8
0
62
0
10
1076.92
20
1483.1
30
0
11
1153.85
21
1483.1
31
0
0
LINE
8
0
62
0
10
1076.92
20
1521.13
30
0
11
1153.85
21
1521.13
31
0
0
POLYLINE
8
0
62
0
66
1
70
8
10
0
20
0
30
0
0
VERTEX
8
0
70
32
10
1076.92
20
1254.93
30
0
0
VERTEX
8
0
70
32
10
1153.85
20
1254.93
30
0
0
VERTEX
8
0
70
32
10
1153.85
20
1064.79
30
0
0
VERTEX
8
0
70
32
10
1076.92
20
1064.79
30
0
0
VERTEX
8
0
70
32
10
1076.92
20
1254.93
30
0
0
SEQEND
8
0
0
LINE
8
0
62
0
10
865.385
20
1521.13
30
0
11
903.846
21
1521.13
31
0
0
LINE
8
0
62
0
10
865.385
20
1483.1
30
0
11
903.846
21
1483.1
31
0
0
ARC
8
0
62
0
10
761.564
20
1495.28
30
0
40
138.667
50
2.82355
51
27.4242
0
ARC
8
0
62
0
10
1007.88
20
1495.26
30
0
40
138.817
50
152.597
51
177.179
0
ARC
8
0
62
0
10
1007.58
20
1508.92
30
0
40
138.516
50
182.826
51
207.445
0
ARC
8
0
62
0
10
761.263
20
1508.99
30
0
40
138.967
50
332.618
51
357.182
0
LINE
8
0
62
0
10
2000
20
1483.1
30
0
11
2000
21
1254.93
31
0
0
LINE
8
0
62
0
10
1988.46
20
1528.73
30
0
11
2015.38
21
1513.52
31
0
0
LINE
8
0
62
0
10
1988.46
20
1490.7
30
0
11
2015.38
21
1475.49
31
0
0
LINE
8
0
62
0
10
2000
20
1521.13
30
0
11
2000
21
1483.1
31
0
0
LINE
8
0
62
0
10
1961.54
20
1483.1
30
0
11
2038.46
21
1483.1
31
0
0
LINE
8
0
62
0
10
1961.54
20
1521.13
30
0
11
2038.46
21
1521.13
31
0
0
POLYLINE
8
0
62
0
66
1
70
8
10
0
20
0
30
0
0
VERTEX
8
0
70
32
10
1961.54
20
1254.93
30
0
0
VERTEX
8
0
70
32
10
2038.46
20
1254.93
30
0
0
VERTEX
8
0
70
32
10
2038.46
20
1064.79
30
0
0
VERTEX
8
0
70
32
10
1961.54
20
1064.79
30
0
0
VERTEX
8
0
70
32
10
1961.54
20
1254.93
30
0
0
SEQEND
8
0
0
LINE
8
0
62
0
10
1250
20
1521.13
30
0
11
1288.46
21
1521.13
31
0
0
LINE
8
0
62
0
10
1250
20
1483.1
30
0
11
1288.46
21
1483.1
31
0
0
ARC
8
0
62
0
10
1146.18
20
1495.28
30
0
40
138.667
50
2.82355
51
27.4242
0
ARC
8
0
62
0
10
1392.49
20
1495.26
30
0
40
138.817
50
152.597
51
177.179
0
ARC
8
0
62
0
10
1392.19
20
1508.92
30
0
40
138.516
50
182.826
51
207.445
0
ARC
8
0
62
0
10
1145.88
20
1508.99
30
0
40
138.967
50
332.618
51
357.182
0
LINE
8
0
62
0
10
1488.46
20
1315.77
30
0
11
1511.54
21
1315.77
31
0
0
LINE
8
0
62
0
10
1480.77
20
1323.38
30
0
11
1519.23
21
1323.38
31
0
0
LINE
8
0
62
0
10
1473.08
20
1330.99
30
0
11
1526.92
21
1330.99
31
0
0
LINE
8
0
62
0
10
1500
20
1369.01
30
0
11
1500
21
1330.99
31
0
0
LINE
8
0
62
0
10
807.692
20
1483.1
30
0
11
807.692
21
1254.93
31
0
0
LINE
8
0
62
0
10
796.154
20
1528.73
30
0
11
823.077
21
1513.52
31
0
0
LINE
8
0
62
0
10
796.154
20
1490.7
30
0
11
823.077
21
1475.49
31
0
0
LINE
8
0
62
0
10
807.692
20
1521.13
30
0
11
807.692
21
1483.1
31
0
0
LINE
8
0
62
0
10
769.231
20
1483.1
30
0
11
846.154
21
1483.1
31
0
0
LINE
8
0
62
0
10
769.231
20
1521.13
30
0
11
846.154
21
1521.13
31
0
0
POLYLINE
8
0
62
0
66
1
70
8
10
0
20
0
30
0
0
VERTEX
8
0
70
32
10
769.231
20
1254.93
30
0
0
VERTEX
8
0
70
32
10
846.154
20
1254.93
30
0
0
VERTEX
8
0
70
32
10
846.154
20
1064.79
30
0
0
VERTEX
8
0
70
32
10
769.231
20
1064.79
30
0
0
VERTEX
8
0
70
32
10
769.231
20
1254.93
30
0
0
SEQEND
8
0
0
LINE
8
0
62
0
10
1269.23
20
1407.04
30
0
11
1296.15
21
1407.04
31
0
0
LINE
8
0
62
0
10
1319.23
20
1407.04
30
0
11
1346.15
21
1407.04
31
0
0
CIRCLE
8
0
62
0
10
1307.69
20
1407.04
30
0
40
9.61538
0
LINE
8
0
62
0
10
1307.69
20
1483.1
30
0
11
1334.62
21
1483.1
31
0
0
LINE
8
0
62
0
10
1357.69
20
1483.1
30
0
11
1384.62
21
1483.1
31
0
0
CIRCLE
8
0
62
0
10
1346.15
20
1483.1
30
0
40
9.61538
0
LINE
8
0
62
0
10
1334.62
20
1315.77
30
0
11
1357.69
21
1315.77
31
0
0
LINE
8
0
62
0
10
1326.92
20
1323.38
30
0
11
1365.38
21
1323.38
31
0
0
LINE
8
0
62
0
10
1319.23
20
1330.99
30
0
11
1373.08
21
1330.99
31
0
0
LINE
8
0
62
0
10
1346.15
20
1369.01
30
0
11
1346.15
21
1330.99
31
0
0
TEXT
8
0
62
0
10
2980.77
20
1528.73
30
0
40
22.8169
41
0.72
1
1
50
360
0
TEXT
8
0
62
0
10
2980.77
20
1490.7
30
0
40
22.8169
41
0.72
1
2
50
360
0
TEXT
8
0
62
0
10
2980.77
20
1452.68
30
0
40
22.8169
41
0.72
1
3
50
360
0
LINE
8
0
62
0
10
2923.08
20
1521.13
30
0
11
2961.54
21
1521.13
31
0
0
LINE
8
0
62
0
10
2923.08
20
1483.1
30
0
11
2961.54
21
1483.1
31
0
0
POLYLINE
8
0
62
0
66
1
70
8
10
0
20
0
30
0
0
VERTEX
8
0
70
32
10
2961.54
20
1559.15
30
0
0
VERTEX
8
0
70
32
10
3000
20
1559.15
30
0
0
VERTEX
8
0
70
32
10
3000
20
1445.07
30
0
0
VERTEX
8
0
70
32
10
2961.54
20
1445.07
30
0
0
VERTEX
8
0
70
32
10
2961.54
20
1559.15
30
0
0
SEQEND
8
0
0
POLYLINE
8
0
62
0
66
1
70
8
10
0
20
0
30
0
0
VERTEX
8
0
70
32
10
3000
20
1559.15
30
0
0
VERTEX
8
0
70
32
10
3250
20
1559.15
30
0
0
VERTEX
8
0
70
32
10
3250
20
1445.07
30
0
0
VERTEX
8
0
70
32
10
3000
20
1445.07
30
0
0
VERTEX
8
0
70
32
10
3000
20
1559.15
30
0
0
SEQEND
8
0
0
POLYLINE
8
0
62
0
66
1
70
8
10
0
20
0
30
0
0
VERTEX
8
0
70
32
10
3250
20
1616.2
30
0
0
VERTEX
8
0
70
32
10
3288.46
20
1616.2
30
0
0
VERTEX
8
0
70
32
10
3288.46
20
1388.03
30
0
0
VERTEX
8
0
70
32
10
3250
20
1388.03
30
0
0
VERTEX
8
0
70
32
10
3250
20
1616.2
30
0
0
SEQEND
8
0
0
POLYLINE
8
0
62
0
66
1
70
8
10
0
20
0
30
0
0
VERTEX
8
0
70
32
10
3288.46
20
1616.2
30
0
0
VERTEX
8
0
70
32
10
3326.92
20
1616.2
30
0
0
VERTEX
8
0
70
32
10
3326.92
20
1388.03
30
0
0
VERTEX
8
0
70
32
10
3288.46
20
1388.03
30
0
0
VERTEX
8
0
70
32
10
3288.46
20
1616.2
30
0
0
SEQEND
8
0
0
POLYLINE
8
0
62
0
66
1
70
8
10
0
20
0
30
0
0
VERTEX
8
0
70
32
10
3326.92
20
1616.2
30
0
0
VERTEX
8
0
70
32
10
3365.38
20
1616.2
30
0
0
VERTEX
8
0
70
32
10
3365.38
20
1388.03
30
0
0
VERTEX
8
0
70
32
10
3326.92
20
1388.03
30
0
0
VERTEX
8
0
70
32
10
3326.92
20
1616.2
30
0
0
SEQEND
8
0
0
POLYLINE
8
0
62
0
66
1
70
8
10
0
20
0
30
0
0
VERTEX
8
0
70
32
10
3365.38
20
1616.2
30
0
0
VERTEX
8
0
70
32
10
3403.85
20
1616.2
30
0
0
VERTEX
8
0
70
32
10
3403.85
20
1388.03
30
0
0
VERTEX
8
0
70
32
10
3365.38
20
1388.03
30
0
0
VERTEX
8
0
70
32
10
3365.38
20
1616.2
30
0
0
SEQEND
8
0
0
POLYLINE
8
0
62
0
66
1
70
8
10
0
20
0
30
0
0
VERTEX
8
0
70
32
10
3403.85
20
1616.2
30
0
0
VERTEX
8
0
70
32
10
3442.31
20
1616.2
30
0
0
VERTEX
8
0
70
32
10
3442.31
20
1388.03
30
0
0
VERTEX
8
0
70
32
10
3403.85
20
1388.03
30
0
0
VERTEX
8
0
70
32
10
3403.85
20
1616.2
30
0
0
SEQEND
8
0
0
POLYLINE
8
0
62
0
66
1
70
8
10
0
20
0
30
0
0
VERTEX
8
0
70
32
10
3442.31
20
1616.2
30
0
0
VERTEX
8
0
70
32
10
3480.77
20
1616.2
30
0
0
VERTEX
8
0
70
32
10
3480.77
20
1388.03
30
0
0
VERTEX
8
0
70
32
10
3442.31
20
1388.03
30
0
0
VERTEX
8
0
70
32
10
3442.31
20
1616.2
30
0
0
SEQEND
8
0
0
POLYLINE
8
0
62
0
66
1
70
8
10
0
20
0
30
0
0
VERTEX
8
0
70
32
10
2961.54
20
1559.15
30
0
0
VERTEX
8
0
70
32
10
3000
20
1559.15
30
0
0
VERTEX
8
0
70
32
10
3000
20
1521.13
30
0
0
VERTEX
8
0
70
32
10
2961.54
20
1521.13
30
0
0
VERTEX
8
0
70
32
10
2961.54
20
1559.15
30
0
0
SEQEND
8
0
0
POLYLINE
8
0
62
0
66
1
70
8
10
0
20
0
30
0
0
VERTEX
8
0
70
32
10
2961.54
20
1483.1
30
0
0
VERTEX
8
0
70
32
10
3000
20
1483.1
30
0
0
VERTEX
8
0
70
32
10
3000
20
1445.07
30
0
0
VERTEX
8
0
70
32
10
2961.54
20
1445.07
30
0
0
VERTEX
8
0
70
32
10
2961.54
20
1483.1
30
0
0
SEQEND
8
0
0
LINE
8
0
62
0
10
923.077
20
1407.04
30
0
11
950
21
1407.04
31
0
0
LINE
8
0
62
0
10
973.077
20
1407.04
30
0
11
1000
21
1407.04
31
0
0
CIRCLE
8
0
62
0
10
961.538
20
1407.04
30
0
40
9.61538
0
LINE
8
0
62
0
10
1019.23
20
1521.13
30
0
11
1057.69
21
1521.13
31
0
0
LINE
8
0
62
0
10
1019.23
20
1483.1
30
0
11
1057.69
21
1483.1
31
0
0
ARC
8
0
62
0
10
915.41
20
1495.28
30
0
40
138.667
50
2.82355
51
27.4242
0
ARC
8
0
62
0
10
1161.73
20
1495.26
30
0
40
138.817
50
152.597
51
177.179
0
ARC
8
0
62
0
10
1161.42
20
1508.92
30
0
40
138.516
50
182.826
51
207.445
0
ARC
8
0
62
0
10
915.109
20
1508.99
30
0
40
138.967
50
332.618
51
357.182
0
LINE
8
0
62
0
10
1307.69
20
1521.13
30
0
11
1334.62
21
1521.13
31
0
0
LINE
8
0
62
0
10
1357.69
20
1521.13
30
0
11
1384.62
21
1521.13
31
0
0
CIRCLE
8
0
62
0
10
1346.15
20
1521.13
30
0
40
9.61538
0
LINE
8
0
62
0
10
1500
20
1407.04
30
0
11
1526.92
21
1407.04
31
0
0
LINE
8
0
62
0
10
1550
20
1407.04
30
0
11
1576.92
21
1407.04
31
0
0
CIRCLE
8
0
62
0
10
1538.46
20
1407.04
30
0
40
9.61538
0
LINE
8
0
62
0
10
923.077
20
1483.1
30
0
11
950
21
1483.1
31
0
0
LINE
8
0
62
0
10
973.077
20
1483.1
30
0
11
1000
21
1483.1
31
0
0
CIRCLE
8
0
62
0
10
961.538
20
1483.1
30
0
40
9.61538
0
LINE
8
0
62
0
10
1596.15
20
1521.13
30
0
11
1634.62
21
1521.13
31
0
0
LINE
8
0
62
0
10
1596.15
20
1483.1
30
0
11
1634.62
21
1483.1
31
0
0
ARC
8
0
62
0
10
1492.33
20
1495.28
30
0
40
138.667
50
2.82355
51
27.4242
0
ARC
8
0
62
0
10
1738.65
20
1495.26
30
0
40
138.817
50
152.597
51
177.179
0
ARC
8
0
62
0
10
1738.35
20
1508.92
30
0
40
138.516
50
182.826
51
207.445
0
ARC
8
0
62
0
10
1492.03
20
1508.99
30
0
40
138.967
50
332.618
51
357.182
0
LINE
8
0
62
0
10
634.615
20
1521.13
30
0
11
673.077
21
1521.13
31
0
0
LINE
8
0
62
0
10
634.615
20
1483.1
30
0
11
673.077
21
1483.1
31
0
0
ARC
8
0
62
0
10
530.795
20
1495.28
30
0
40
138.667
50
2.82355
51
27.4242
0
ARC
8
0
62
0
10
777.11
20
1495.26
30
0
40
138.817
50
152.597
51
177.179
0
ARC
8
0
62
0
10
776.809
20
1508.92
30
0
40
138.516
50
182.826
51
207.445
0
ARC
8
0
62
0
10
530.493
20
1508.99
30
0
40
138.967
50
332.618
51
357.182
0
LINE
8
0
62
0
10
923.077
20
1521.13
30
0
11
950
21
1521.13
31
0
0
LINE
8
0
62
0
10
973.077
20
1521.13
30
0
11
1000
21
1521.13
31
0
0
CIRCLE
8
0
62
0
10
961.538
20
1521.13
30
0
40
9.61538
0
LINE
8
0
62
0
10
1461.54
20
1483.1
30
0
11
1488.46
21
1483.1
31
0
0
LINE
8
0
62
0
10
1511.54
20
1483.1
30
0
11
1538.46
21
1483.1
31
0
0
CIRCLE
8
0
62
0
10
1500
20
1483.1
30
0
40
9.61538
0
LINE
8
0
62
0
10
1461.54
20
1521.13
30
0
11
1488.46
21
1521.13
31
0
0
LINE
8
0
62
0
10
1511.54
20
1521.13
30
0
11
1538.46
21
1521.13
31
0
0
CIRCLE
8
0
62
0
10
1500
20
1521.13
30
0
40
9.61538
0
TEXT
8
0
62
0
10
565.385
20
1395.63
30
0
40
22.8169
41
0.72
1
NC
50
360
0
LINE
8
0
62
0
10
480.769
20
1521.13
30
0
11
519.231
21
1521.13
31
0
0
LINE
8
0
62
0
10
480.769
20
1483.1
30
0
11
519.231
21
1483.1
31
0
0
LINE
8
0
62
0
10
480.769
20
1178.87
30
0
11
519.231
21
1178.87
31
0
0
POLYLINE
8
0
62
0
66
1
70
8
10
0
20
0
30
0
0
VERTEX
8
0
70
32
10
365.385
20
1292.96
30
0
0
VERTEX
8
0
70
32
10
403.846
20
1292.96
30
0
0
VERTEX
8
0
70
32
10
403.846
20
1254.93
30
0
0
VERTEX
8
0
70
32
10
365.385
20
1254.93
30
0
0
VERTEX
8
0
70
32
10
365.385
20
1292.96
30
0
0
SEQEND
8
0
0
POLYLINE
8
0
62
0
66
1
70
8
10
0
20
0
30
0
0
VERTEX
8
0
70
32
10
288.462
20
1407.04
30
0
0
VERTEX
8
0
70
32
10
326.923
20
1407.04
30
0
0
VERTEX
8
0
70
32
10
326.923
20
1369.01
30
0
0
VERTEX
8
0
70
32
10
288.462
20
1369.01
30
0
0
VERTEX
8
0
70
32
10
288.462
20
1407.04
30
0
0
SEQEND
8
0
0
POLYLINE
8
0
62
0
66
1
70
8
10
0
20
0
30
0
0
VERTEX
8
0
70
32
10
365.385
20
1350
30
0
0
VERTEX
8
0
70
32
10
403.846
20
1350
30
0
0
VERTEX
8
0
70
32
10
403.846
20
1311.97
30
0
0
VERTEX
8
0
70
32
10
365.385
20
1311.97
30
0
0
VERTEX
8
0
70
32
10
365.385
20
1350
30
0
0
SEQEND
8
0
0
POLYLINE
8
0
62
0
66
1
70
8
10
0
20
0
30
0
0
VERTEX
8
0
70
32
10
288.462
20
1292.96
30
0
0
VERTEX
8
0
70
32
10
326.923
20
1292.96
30
0
0
VERTEX
8
0
70
32
10
326.923
20
1254.93
30
0
0
VERTEX
8
0
70
32
10
288.462
20
1254.93
30
0
0
VERTEX
8
0
70
32
10
288.462
20
1292.96
30
0
0
SEQEND
8
0
0
POLYLINE
8
0
62
0
66
1
70
8
10
0
20
0
30
0
0
VERTEX
8
0
70
32
10
288.462
20
1350
30
0
0
VERTEX
8
0
70
32
10
326.923
20
1350
30
0
0
VERTEX
8
0
70
32
10
326.923
20
1311.97
30
0
0
VERTEX
8
0
70
32
10
288.462
20
1311.97
30
0
0
VERTEX
8
0
70
32
10
288.462
20
1350
30
0
0
SEQEND
8
0
0
POLYLINE
8
0
62
0
66
1
70
8
10
0
20
0
30
0
0
VERTEX
8
0
70
32
10
211.538
20
1559.15
30
0
0
VERTEX
8
0
70
32
10
442.308
20
1559.15
30
0
0
VERTEX
8
0
70
32
10
442.308
20
1159.86
30
0
0
VERTEX
8
0
70
32
10
211.538
20
1159.86
30
0
0
VERTEX
8
0
70
32
10
211.538
20
1559.15
30
0
0
SEQEND
8
0
0
POLYLINE
8
0
62
0
66
1
70
8
10
0
20
0
30
0
0
VERTEX
8
0
70
32
10
211.538
20
1559.15
30
0
0
VERTEX
8
0
70
32
10
250
20
1559.15
30
0
0
VERTEX
8
0
70
32
10
250
20
1159.86
30
0
0
VERTEX
8
0
70
32
10
211.538
20
1159.86
30
0
0
VERTEX
8
0
70
32
10
211.538
20
1559.15
30
0
0
SEQEND
8
0
0
POLYLINE
8
0
62
0
66
1
70
8
10
0
20
0
30
0
0
VERTEX
8
0
70
32
10
442.308
20
1559.15
30
0
0
VERTEX
8
0
70
32
10
480.769
20
1559.15
30
0
0
VERTEX
8
0
70
32
10
480.769
20
1159.86
30
0
0
VERTEX
8
0
70
32
10
442.308
20
1159.86
30
0
0
VERTEX
8
0
70
32
10
442.308
20
1559.15
30
0
0
SEQEND
8
0
0
POLYLINE
8
0
62
0
66
1
70
8
10
0
20
0
30
0
0
VERTEX
8
0
70
32
10
269.231
20
1502.11
30
0
0
VERTEX
8
0
70
32
10
423.077
20
1502.11
30
0
0
VERTEX
8
0
70
32
10
423.077
20
1445.07
30
0
0
VERTEX
8
0
70
32
10
269.231
20
1445.07
30
0
0
VERTEX
8
0
70
32
10
269.231
20
1502.11
30
0
0
SEQEND
8
0
0
POLYLINE
8
0
62
0
66
1
70
8
10
0
20
0
30
0
0
VERTEX
8
0
70
32
10
365.385
20
1407.04
30
0
0
VERTEX
8
0
70
32
10
403.846
20
1407.04
30
0
0
VERTEX
8
0
70
32
10
403.846
20
1369.01
30
0
0
VERTEX
8
0
70
32
10
365.385
20
1369.01
30
0
0
VERTEX
8
0
70
32
10
365.385
20
1407.04
30
0
0
SEQEND
8
0
0
POLYLINE
8
0
62
0
66
1
70
8
10
0
20
0
30
0
0
VERTEX
8
0
70
32
10
519.231
20
1521.13
30
0
0
VERTEX
8
0
70
32
10
553.846
20
1521.13
30
0
0
VERTEX
8
0
70
32
10
576.923
20
1521.13
30
0
0
VERTEX
8
0
70
32
10
576.923
20
1521.13
30
0
0
VERTEX
8
0
70
32
10
600
20
1521.13
30
0
0
VERTEX
8
0
70
32
10
634.615
20
1521.13
30
0
0
SEQEND
8
0
0
POLYLINE
8
0
62
0
66
1
70
8
10
0
20
0
30
0
0
VERTEX
8
0
70
32
10
519.231
20
1483.1
30
0
0
VERTEX
8
0
70
32
10
553.846
20
1483.1
30
0
0
VERTEX
8
0
70
32
10
576.923
20
1483.1
30
0
0
VERTEX
8
0
70
32
10
576.923
20
1483.1
30
0
0
VERTEX
8
0
70
32
10
600
20
1483.1
30
0
0
VERTEX
8
0
70
32
10
634.615
20
1483.1
30
0
0
SEQEND
8
0
0
POLYLINE
8
0
62
0
66
1
70
8
10
0
20
0
30
0
0
VERTEX
8
0
70
32
10
1307.69
20
1483.1
30
0
0
VERTEX
8
0
70
32
10
1273.08
20
1483.1
30
0
0
VERTEX
8
0
70
32
10
1273.08
20
1483.1
30
0
0
VERTEX
8
0
70
32
10
1323.08
20
1483.1
30
0
0
VERTEX
8
0
70
32
10
1323.08
20
1483.1
30
0
0
VERTEX
8
0
70
32
10
1288.46
20
1483.1
30
0
0
SEQEND
8
0
0
POLYLINE
8
0
62
0
66
1
70
8
10
0
20
0
30
0
0
VERTEX
8
0
70
32
10
1461.54
20
1521.13
30
0
0
VERTEX
8
0
70
32
10
1426.92
20
1521.13
30
0
0
VERTEX
8
0
70
32
10
1423.08
20
1521.13
30
0
0
VERTEX
8
0
70
32
10
1423.08
20
1521.13
30
0
0
VERTEX
8
0
70
32
10
1419.23
20
1521.13
30
0
0
VERTEX
8
0
70
32
10
1384.62
20
1521.13
30
0
0
SEQEND
8
0
0
POLYLINE
8
0
62
0
66
1
70
8
10
0
20
0
30
0
0
VERTEX
8
0
70
32
10
923.077
20
1483.1
30
0
0
VERTEX
8
0
70
32
10
888.462
20
1483.1
30
0
0
VERTEX
8
0
70
32
10
888.462
20
1483.1
30
0
0
VERTEX
8
0
70
32
10
938.462
20
1483.1
30
0
0
VERTEX
8
0
70
32
10
938.462
20
1483.1
30
0
0
VERTEX
8
0
70
32
10
903.846
20
1483.1
30
0
0
SEQEND
8
0
0
POLYLINE
8
0
62
0
66
1
70
8
10
0
20
0
30
0
0
VERTEX
8
0
70
32
10
1307.69
20
1521.13
30
0
0
VERTEX
8
0
70
32
10
1273.08
20
1521.13
30
0
0
VERTEX
8
0
70
32
10
1273.08
20
1521.13
30
0
0
VERTEX
8
0
70
32
10
1323.08
20
1521.13
30
0
0
VERTEX
8
0
70
32
10
1323.08
20
1521.13
30
0
0
VERTEX
8
0
70
32
10
1288.46
20
1521.13
30
0
0
SEQEND
8
0
0
POLYLINE
8
0
62
0
66
1
70
8
10
0
20
0
30
0
0
VERTEX
8
0
70
32
10
1000
20
1483.1
30
0
0
VERTEX
8
0
70
32
10
1034.62
20
1483.1
30
0
0
VERTEX
8
0
70
32
10
1034.62
20
1483.1
30
0
0
VERTEX
8
0
70
32
10
984.615
20
1483.1
30
0
0
VERTEX
8
0
70
32
10
984.615
20
1483.1
30
0
0
VERTEX
8
0
70
32
10
1019.23
20
1483.1
30
0
0
SEQEND
8
0
0
POLYLINE
8
0
62
0
66
1
70
8
10
0
20
0
30
0
0
VERTEX
8
0
70
32
10
1153.85
20
1483.1
30
0
0
VERTEX
8
0
70
32
10
1188.46
20
1483.1
30
0
0
VERTEX
8
0
70
32
10
1192.31
20
1483.1
30
0
0
VERTEX
8
0
70
32
10
1192.31
20
1483.1
30
0
0
VERTEX
8
0
70
32
10
1215.38
20
1483.1
30
0
0
VERTEX
8
0
70
32
10
1250
20
1483.1
30
0
0
SEQEND
8
0
0
POLYLINE
8
0
62
0
66
1
70
8
10
0
20
0
30
0
0
VERTEX
8
0
70
32
10
865.385
20
1483.1
30
0
0
VERTEX
8
0
70
32
10
830.769
20
1483.1
30
0
0
VERTEX
8
0
70
32
10
769.231
20
1483.1
30
0
0
VERTEX
8
0
70
32
10
769.231
20
1483.1
30
0
0
VERTEX
8
0
70
32
10
707.692
20
1483.1
30
0
0
VERTEX
8
0
70
32
10
673.077
20
1483.1
30
0
0
SEQEND
8
0
0
POLYLINE
8
0
62
0
66
1
70
8
10
0
20
0
30
0
0
VERTEX
8
0
70
32
10
865.385
20
1521.13
30
0
0
VERTEX
8
0
70
32
10
830.769
20
1521.13
30
0
0
VERTEX
8
0
70
32
10
769.231
20
1521.13
30
0
0
VERTEX
8
0
70
32
10
769.231
20
1521.13
30
0
0
VERTEX
8
0
70
32
10
707.692
20
1521.13
30
0
0
VERTEX
8
0
70
32
10
673.077
20
1521.13
30
0
0
SEQEND
8
0
0
POLYLINE
8
0
62
0
66
1
70
8
10
0
20
0
30
0
0
VERTEX
8
0
70
32
10
1250
20
1521.13
30
0
0
VERTEX
8
0
70
32
10
1215.38
20
1521.13
30
0
0
VERTEX
8
0
70
32
10
1153.85
20
1521.13
30
0
0
VERTEX
8
0
70
32
10
1153.85
20
1521.13
30
0
0
VERTEX
8
0
70
32
10
1092.31
20
1521.13
30
0
0
VERTEX
8
0
70
32
10
1057.69
20
1521.13
30
0
0
SEQEND
8
0
0
POLYLINE
8
0
62
0
66
1
70
8
10
0
20
0
30
0
0
VERTEX
8
0
70
32
10
769.231
20
1521.13
30
0
0
VERTEX
8
0
70
32
10
734.615
20
1521.13
30
0
0
VERTEX
8
0
70
32
10
692.308
20
1521.13
30
0
0
VERTEX
8
0
70
32
10
692.308
20
1521.13
30
0
0
VERTEX
8
0
70
32
10
707.692
20
1521.13
30
0
0
VERTEX
8
0
70
32
10
673.077
20
1521.13
30
0
0
SEQEND
8
0
0
POLYLINE
8
0
62
0
66
1
70
8
10
0
20
0
30
0
0
VERTEX
8
0
70
32
10
1961.54
20
1483.1
30
0
0
VERTEX
8
0
70
32
10
1926.92
20
1483.1
30
0
0
VERTEX
8
0
70
32
10
1769.23
20
1483.1
30
0
0
VERTEX
8
0
70
32
10
1769.23
20
1483.1
30
0
0
VERTEX
8
0
70
32
10
1669.23
20
1483.1
30
0
0
VERTEX
8
0
70
32
10
1634.62
20
1483.1
30
0
0
SEQEND
8
0
0
POLYLINE
8
0
62
0
66
1
70
8
10
0
20
0
30
0
0
VERTEX
8
0
70
32
10
923.077
20
1521.13
30
0
0
VERTEX
8
0
70
32
10
888.462
20
1521.13
30
0
0
VERTEX
8
0
70
32
10
888.462
20
1521.13
30
0
0
VERTEX
8
0
70
32
10
938.462
20
1521.13
30
0
0
VERTEX
8
0
70
32
10
938.462
20
1521.13
30
0
0
VERTEX
8
0
70
32
10
903.846
20
1521.13
30
0
0
SEQEND
8
0
0
POLYLINE
8
0
62
0
66
1
70
8
10
0
20
0
30
0
0
VERTEX
8
0
70
32
10
846.154
20
1483.1
30
0
0
VERTEX
8
0
70
32
10
880.769
20
1483.1
30
0
0
VERTEX
8
0
70
32
10
880.769
20
1483.1
30
0
0
VERTEX
8
0
70
32
10
830.769
20
1483.1
30
0
0
VERTEX
8
0
70
32
10
830.769
20
1483.1
30
0
0
VERTEX
8
0
70
32
10
865.385
20
1483.1
30
0
0
SEQEND
8
0
0
POLYLINE
8
0
62
0
66
1
70
8
10
0
20
0
30
0
0
VERTEX
8
0
70
32
10
2923.08
20
1521.13
30
0
0
VERTEX
8
0
70
32
10
2888.46
20
1521.13
30
0
0
VERTEX
8
0
70
32
10
2461.54
20
1521.13
30
0
0
VERTEX
8
0
70
32
10
2461.54
20
1521.13
30
0
0
VERTEX
8
0
70
32
10
2073.08
20
1521.13
30
0
0
VERTEX
8
0
70
32
10
2038.46
20
1521.13
30
0
0
SEQEND
8
0
0
POLYLINE
8
0
62
0
66
1
70
8
10
0
20
0
30
0
0
VERTEX
8
0
70
32
10
1153.85
20
1521.13
30
0
0
VERTEX
8
0
70
32
10
1188.46
20
1521.13
30
0
0
VERTEX
8
0
70
32
10
1192.31
20
1521.13
30
0
0
VERTEX
8
0
70
32
10
1192.31
20
1521.13
30
0
0
VERTEX
8
0
70
32
10
1215.38
20
1521.13
30
0
0
VERTEX
8
0
70
32
10
1250
20
1521.13
30
0
0
SEQEND
8
0
0
POLYLINE
8
0
62
0
66
1
70
8
10
0
20
0
30
0
0
VERTEX
8
0
70
32
10
846.154
20
1521.13
30
0
0
VERTEX
8
0
70
32
10
880.769
20
1521.13
30
0
0
VERTEX
8
0
70
32
10
880.769
20
1521.13
30
0
0
VERTEX
8
0
70
32
10
830.769
20
1521.13
30
0
0
VERTEX
8
0
70
32
10
830.769
20
1521.13
30
0
0
VERTEX
8
0
70
32
10
865.385
20
1521.13
30
0
0
SEQEND
8
0
0
POLYLINE
8
0
62
0
66
1
70
8
10
0
20
0
30
0
0
VERTEX
8
0
70
32
10
1250
20
1483.1
30
0
0
VERTEX
8
0
70
32
10
1215.38
20
1483.1
30
0
0
VERTEX
8
0
70
32
10
1153.85
20
1483.1
30
0
0
VERTEX
8
0
70
32
10
1153.85
20
1483.1
30
0
0
VERTEX
8
0
70
32
10
1092.31
20
1483.1
30
0
0
VERTEX
8
0
70
32
10
1057.69
20
1483.1
30
0
0
SEQEND
8
0
0
POLYLINE
8
0
62
0
66
1
70
8
10
0
20
0
30
0
0
VERTEX
8
0
70
32
10
1961.54
20
1521.13
30
0
0
VERTEX
8
0
70
32
10
1926.92
20
1521.13
30
0
0
VERTEX
8
0
70
32
10
1769.23
20
1521.13
30
0
0
VERTEX
8
0
70
32
10
1769.23
20
1521.13
30
0
0
VERTEX
8
0
70
32
10
1669.23
20
1521.13
30
0
0
VERTEX
8
0
70
32
10
1634.62
20
1521.13
30
0
0
SEQEND
8
0
0
POLYLINE
8
0
62
0
66
1
70
8
10
0
20
0
30
0
0
VERTEX
8
0
70
32
10
769.231
20
1483.1
30
0
0
VERTEX
8
0
70
32
10
734.615
20
1483.1
30
0
0
VERTEX
8
0
70
32
10
692.308
20
1483.1
30
0
0
VERTEX
8
0
70
32
10
692.308
20
1483.1
30
0
0
VERTEX
8
0
70
32
10
707.692
20
1483.1
30
0
0
VERTEX
8
0
70
32
10
673.077
20
1483.1
30
0
0
SEQEND
8
0
0
POLYLINE
8
0
62
0
66
1
70
8
10
0
20
0
30
0
0
VERTEX
8
0
70
32
10
2923.08
20
1483.1
30
0
0
VERTEX
8
0
70
32
10
2888.46
20
1483.1
30
0
0
VERTEX
8
0
70
32
10
2461.54
20
1483.1
30
0
0
VERTEX
8
0
70
32
10
2461.54
20
1483.1
30
0
0
VERTEX
8
0
70
32
10
2073.08
20
1483.1
30
0
0
VERTEX
8
0
70
32
10
2038.46
20
1483.1
30
0
0
SEQEND
8
0
0
POLYLINE
8
0
62
0
66
1
70
8
10
0
20
0
30
0
0
VERTEX
8
0
70
32
10
1596.15
20
1483.1
30
0
0
VERTEX
8
0
70
32
10
1561.54
20
1483.1
30
0
0
VERTEX
8
0
70
32
10
1561.54
20
1483.1
30
0
0
VERTEX
8
0
70
32
10
1573.08
20
1483.1
30
0
0
VERTEX
8
0
70
32
10
1573.08
20
1483.1
30
0
0
VERTEX
8
0
70
32
10
1538.46
20
1483.1
30
0
0
SEQEND
8
0
0
POLYLINE
8
0
62
0
66
1
70
8
10
0
20
0
30
0
0
VERTEX
8
0
70
32
10
1596.15
20
1521.13
30
0
0
VERTEX
8
0
70
32
10
1561.54
20
1521.13
30
0
0
VERTEX
8
0
70
32
10
1561.54
20
1521.13
30
0
0
VERTEX
8
0
70
32
10
1573.08
20
1521.13
30
0
0
VERTEX
8
0
70
32
10
1573.08
20
1521.13
30
0
0
VERTEX
8
0
70
32
10
1538.46
20
1521.13
30
0
0
SEQEND
8
0
0
POLYLINE
8
0
62
0
66
1
70
8
10
0
20
0
30
0
0
VERTEX
8
0
70
32
10
1000
20
1521.13
30
0
0
VERTEX
8
0
70
32
10
1034.62
20
1521.13
30
0
0
VERTEX
8
0
70
32
10
1034.62
20
1521.13
30
0
0
VERTEX
8
0
70
32
10
984.615
20
1521.13
30
0
0
VERTEX
8
0
70
32
10
984.615
20
1521.13
30
0
0
VERTEX
8
0
70
32
10
1019.23
20
1521.13
30
0
0
SEQEND
8
0
0
POLYLINE
8
0
62
0
66
1
70
8
10
0
20
0
30
0
0
VERTEX
8
0
70
32
10
1461.54
20
1483.1
30
0
0
VERTEX
8
0
70
32
10
1426.92
20
1483.1
30
0
0
VERTEX
8
0
70
32
10
1423.08
20
1483.1
30
0
0
VERTEX
8
0
70
32
10
1423.08
20
1483.1
30
0
0
VERTEX
8
0
70
32
10
1419.23
20
1483.1
30
0
0
VERTEX
8
0
70
32
10
1384.62
20
1483.1
30
0
0
SEQEND
8
0
0
TEXT
8
0
62
0
10
2019.23
20
1230.21
30
0
40
19.0141
41
0.72
1
S32-A101/
50
270
0
TEXT
8
0
62
0
10
2923.08
20
1457.24
30
0
40
22.8169
41
0.72
1
1
50
360
0
TEXT
8
0
62
0
10
3266.15
20
1595.66
30
0
40
22.8169
41
0.72
1
4-20mA - A1
50
270
0
TEXT
8
0
62
0
10
3343.08
20
1595.66
30
0
40
22.8169
41
0.72
1
Pos: 10
50
270
0
TEXT
8
0
62
0
10
826.923
20
1230.21
30
0
40
19.0141
41
0.72
1
FIAS614321
50
270
0
TEXT
8
0
62
0
10
1134.62
20
1230.21
30
0
40
19.0141
41
0.72
1
FIAS614321
50
270
0
TEXT
8
0
62
0
10
1362.38
20
1531.64
30
0
40
22.8169
41
0.72
1
145
50
360
0
TEXT
8
0
62
0
10
1982.22
20
1241.71
30
0
40
19.0141
41
0.72
1
X2i3A/WXAI/1
50
270
0
TEXT
8
0
62
0
10
2923.08
20
1533.3
30
0
40
22.8169
41
0.72
1
2
50
360
0
TEXT
8
0
62
0
10
3065.38
20
1488.42
30
0
40
26.6197
41
0.72
1
MTL4541
50
360
0
TEXT
8
0
62
0
10
1361.54
20
1495.27
30
0
40
22.8169
41
0.72
1
146
50
360
0
TEXT
8
0
62
0
10
3420
20
1595.66
30
0
40
22.8169
41
0.72
1
LBug: FP4382
50
270
0
TEXT
8
0
62
0
10
3458.46
20
1595.66
30
0
40
22.8169
41
0.72
1
S3.2 (PLC03)
50
270
0
TEXT
8
0
62
0
10
3381.54
20
1595.66
30
0
40
22.8169
41
0.72
1
Rack: A103
50
270
0
TEXT
8
0
62
0
10
3304.62
20
1595.66
30
0
40
22.8169
41
0.72
1
Kanal: 02
50
270
0
TEXT
8
0
62
0
10
1096.15
20
1176.97
30
0
40
19.0141
41
0.72
1
2X1
50
270
0
TEXT
8
0
62
0
10
980.769
20
1457.24
30
0
40
22.8169
41
0.72
1
2
50
360
0
TEXT
8
0
62
0
10
1515.38
20
1495.27
30
0
40
22.8169
41
0.72
1
20
50
360
0
TEXT
8
0
62
0
10
1515.38
20
1533.3
30
0
40
22.8169
41
0.72
1
19
50
360
0
TEXT
8
0
62
0
10
980.769
20
1537.1
30
0
40
22.8169
41
0.72
1
1
50
360
0
TEXT
8
0
62
0
10
788.462
20
1176.97
30
0
40
19.0141
41
0.72
1
2X1
50
270
0
TEXT
8
0
62
0
10
246.154
20
1573.61
30
0
40
34.2254
41
0.72
1
FIAS 61321
50
360
0
TEXT
8
0
62
0
10
2188.46
20
2448.25
30
0
40
34.2254
41
0.72
1
SLI (Instrument technical room)
50
360
0
TEXT
8
0
62
0
10
534.615
20
2448.25
30
0
40
34.2254
41
0.72
1
Feld (Field)
50
360
0
TEXT
8
0
62
0
10
1496.15
20
2220.08
30
0
40
34.2254
41
0.72
1
X2i3A
50
360
0
TEXT
8
0
62
0
10
2457.69
20
2372.2
30
0
40
34.2254
41
0.72
1
STEUERUNG/
50
360
0
TEXT
8
0
62
0
10
2457.69
20
2317.44
30
0
40
34.2254
41
0.72
1
KOPPLEBENE
50
360
0
TEXT
8
0
62
0
10
2726.92
20
2524.31
30
0
40
34.2254
41
0.72
1
Keine Ex-ZONE (None hazardous area)
50
360
0
TEXT
8
0
62
0
10
2919.23
20
2372.2
30
0
40
34.2254
41
0.72
1
                 DCS
50
360
0
TEXT
8
0
62
0
10
2919.23
20
2317.44
30
0
40
34.2254
41
0.72
1
(Distributed control system)
50
360
0
TEXT
8
0
62
0
10
803.846
20
2524.31
30
0
40
34.2254
41
0.72
1
Ex-ZONENPLAN (Hazardous area)
50
360
0
TEXT
8
0
62
0
10
1880.77
20
2372.2
30
0
40
34.2254
41
0.72
1
 Ex KABINE
50
360
0
TEXT
8
0
62
0
10
1880.77
20
2317.44
30
0
40
34.2254
41
0.72
1
(IS cabinet)
50
360
0
TEXT
8
0
62
0
10
765.385
20
2220.08
30
0
40
34.2254
41
0.72
1
VKEI
50
360
0
TEXT
8
0
62
0
10
1265.38
20
2372.2
30
0
40
34.2254
41
0.72
1
 RANGIERUNG
50
360
0
TEXT
8
0
62
0
10
1265.38
20
2317.44
30
0
40
34.2254
41
0.72
1
(Marshalling)
50
360
0
TEXT
8
0
62
0
10
1111.54
20
2220.08
30
0
40
34.2254
41
0.72
1
14
50
360
0
TEXT
8
0
62
0
10
3573.08
20
2448.25
30
0
40
34.2254
41
0.72
1
SRI (Control room)
50
360
0
TEXT
8
0
62
0
10
1265.38
20
2220.08
30
0
40
34.2254
41
0.72
1
X1i6A
50
360
0
TEXT
8
0
62
0
10
919.231
20
2220.08
30
0
40
34.2254
41
0.72
1
6
50
360
0
TEXT
8
0
62
0
10
842.308
20
2372.2
30
0
40
34.2254
41
0.72
1
          UV
50
360
0
TEXT
8
0
62
0
10
842.308
20
2317.44
30
0
40
34.2254
41
0.72
1
(Junction Box)
50
360
0
TEXT
8
0
62
0
10
996.154
20
2220.08
30
0
40
34.2254
41
0.72
1
A
50
360
0
ENDSEC
0
EOF