<?xml version="1.0" encoding="UTF-8" standalone="no"?>
<!DOCTYPE svg PUBLIC "-//W3C//DTD SVG 1.0//EN" "http://www.w3.org/TR/2001/REC-SVG-20010904/DTD/svg10.dtd">
<!-- Created with Inkscape (http://www.inkscape.org/) -->
<svg xmlns:svg="http://www.w3.org/2000/svg" xmlns="http://www.w3.org/2000/svg" version="1.0" width="800" height="700" id="svg2">
  <defs id="defs4"/>
  <g id="layer1">
    <path d="M 608.57143,535.71426 L 216.26567,535.20781 L 20.551383,195.20783 L 217.14286,-144.2857 L 609.44863,-143.77926 L 805.16291,196.22073 L 608.57143,535.71426 z" transform="matrix(0.8476488,0,0,0.8476488,59.465297,187.03306)" id="path4212" style="opacity:1;fill:none;fill-opacity:1;fill-rule:nonzero;stroke:#000000;stroke-width:41.74102402;stroke-linecap:round;stroke-linejoin:miter;stroke-miterlimit:4;stroke-dasharray:none;stroke-opacity:1"/>
    <path d="M 309.46667,165.23313 C 257.85,165.23313 215.62216,209.87278 215.62217,264.46781 C 215.62216,301.85914 235.42753,334.59497 264.49318,351.51238 C 235.42868,368.43017 215.62216,401.16654 215.62217,438.55696 C 215.62216,493.15199 257.85,537.79166 309.46667,537.79165 C 335.72914,537.79165 359.5545,526.23955 376.63667,507.68954 L 351.78653,482.8394 C 341.03282,494.33816 326.0848,501.41482 309.46667,501.41481 C 276.46423,501.41481 250.00879,473.4637 250.00879,438.55696 C 250.00879,404.24979 275.57207,376.66504 307.78051,375.72675 L 307.66994,375.28448 L 349.6581,375.28448 L 349.6581,354.11073 L 349.6581,348.91404 L 349.6581,327.74029 L 307.66994,327.74029 L 307.78051,327.29802 C 275.57207,326.35974 250.00879,298.77497 250.00879,264.46781 C 250.00879,229.56109 276.46423,201.60996 309.46667,201.60996 C 326.0848,201.60996 341.03282,208.68661 351.78653,220.18537 L 376.63667,195.33524 C 359.5545,176.78524 335.72914,165.23313 309.46667,165.23313 z M 422.57763,332.08008 L 422.57763,367.4618 L 434.57425,367.4618 C 442.05042,367.4618 445.6138,369.26058 448.94807,375.0357 L 484.1363,436.06918 L 448.31231,498.20834 C 444.97804,503.98346 441.41462,505.78224 433.93848,505.78224 L 421.94186,505.78224 L 421.94186,541.16397 L 433.93848,541.16397 C 451.47178,541.16397 469.48944,532.31525 478.96726,515.8992 L 504.56372,471.50619 L 530.18783,515.8992 C 539.66564,532.31525 557.68331,541.16397 575.21661,541.16397 L 587.21323,541.16397 L 587.21323,505.78224 L 575.21661,505.78224 C 567.74046,505.78224 564.17705,503.98346 560.84278,498.20834 L 525.01878,436.06918 L 560.20702,375.0357 C 563.54128,369.26058 567.10466,367.4618 574.58084,367.4618 L 586.57746,367.4618 L 586.57746,332.08008 L 574.58084,332.08008 C 557.04754,332.08008 539.02987,340.92879 529.55207,357.34484 L 504.56372,400.65981 L 479.60302,357.34484 C 470.12521,340.92879 452.10755,332.08008 434.57425,332.08008 L 422.57763,332.08008 z" id="path4214" style="opacity:1;fill:#000000;fill-opacity:1;fill-rule:nonzero;stroke:none;stroke-width:43.6022644;stroke-linecap:round;stroke-linejoin:miter;stroke-miterlimit:4;stroke-dasharray:none;stroke-opacity:1"/>
  </g>
</svg>